<svg display="none" xmlns="http://www.w3.org/2000/svg">

    <symbol id="training-logo" viewBox="0 0 32 32" xmlns="http://www.w3.org/2000/svg">
    <g>
        <path d="M21.7473 5.38605H10.2525C7.569 5.38605 5.38596 7.56909 5.38596 10.2526V21.7474C5.38596 24.4309 7.569 26.6139 10.2525 26.6139H21.7473C24.431 26.6139 26.614 24.4309 26.614 21.7474V10.2526C26.614 7.56909 24.431 5.38605 21.7473 5.38605ZM17.9656 6.24414C21.879 7.03137 24.9687 10.121 25.7559 14.0345H21.0388C20.4888 12.6296 19.3704 11.5112 17.9656 10.9612V6.24414ZM20.7514 16.0001C20.7514 18.6201 18.6201 20.7516 16 20.7516C13.3799 20.7516 11.2484 18.6201 11.2484 16.0001C11.2484 13.38 13.3799 11.2485 16 11.2485C18.6201 11.2485 20.7514 13.38 20.7514 16.0001ZM14.6966 6.1364C15.1236 6.08027 15.558 6.0483 16 6.0483C16.442 6.0483 16.8764 6.08027 17.3033 6.1364V10.7515C16.885 10.6475 16.45 10.5863 16 10.5863C15.55 10.5863 15.115 10.6475 14.6966 10.7515V6.1364ZM14.0344 10.9611C12.6295 11.5112 11.5111 12.6296 10.9611 14.0345H6.24404C7.03128 10.121 10.121 7.03137 14.0344 6.24414V10.9611ZM6.04822 10.2526C6.04822 7.93434 7.93424 6.0483 10.2525 6.0483H12.3108C9.42131 7.12293 7.12284 9.4214 6.04822 12.3109V10.2526V10.2526ZM6.13629 14.6967H10.7514C10.6474 15.115 10.5862 15.55 10.5862 16.0001C10.5862 16.45 10.6474 16.885 10.7514 17.3033H6.13629C6.08019 16.8764 6.04822 16.442 6.04822 16.0001C6.04822 15.5581 6.08019 15.1237 6.13629 14.6967ZM10.2525 25.9517C7.93424 25.9517 6.04822 24.0657 6.04822 21.7474V19.6891C7.12284 22.5786 9.42131 24.8771 12.3108 25.9517H10.2525V25.9517ZM14.0344 25.7558C10.1209 24.9686 7.03119 21.879 6.24401 17.9655H10.961C11.511 19.3704 12.6295 20.4889 14.0344 21.039V25.7558ZM17.3033 25.8636C16.8764 25.9197 16.442 25.9517 16 25.9517C15.558 25.9517 15.1236 25.9197 14.6966 25.8636V21.2486C15.115 21.3526 15.55 21.4139 16 21.4139C16.45 21.4139 16.885 21.3526 17.3033 21.2486V25.8636ZM17.9656 21.039C19.3704 20.4889 20.4888 19.3704 21.0388 17.9655H25.756C24.9688 21.879 21.8791 24.9686 17.9656 25.7558V21.039ZM25.9518 21.7474C25.9518 24.0657 24.0656 25.9517 21.7473 25.9517H19.6891C22.5786 24.8771 24.8771 22.5786 25.9518 19.6891V21.7474V21.7474ZM25.8637 17.3033H21.2484C21.3524 16.885 21.4136 16.45 21.4136 16.0001C21.4136 15.55 21.3524 15.115 21.2484 14.6967H25.8636C25.9198 15.1237 25.9518 15.5581 25.9518 16.0001C25.9518 16.442 25.9198 16.8764 25.8637 17.3033ZM25.9518 12.311C24.8771 9.42142 22.5786 7.12293 19.6891 6.0483H21.7473C24.0656 6.0483 25.9518 7.93434 25.9518 10.2526V12.311V12.311Z"/>
    </g>
    </symbol>

    <symbol id="training-logo-invest" viewBox="0 0 32 24" xmlns="http://www.w3.org/2000/svg">
    <g>
        <path d="M32 6.53306C32 5.82986 31.7045 5.19562 31.2327 4.74394C31.7045 4.29225 32 3.65801 32 2.95481C32 1.58756 30.8876 0.475159 29.5202 0.475159H17.9361C16.7015 0.475159 15.6776 1.38325 15.4901 2.56598C11.9931 2.75291 8.99614 4.85053 7.52414 7.8309H2.47977C1.1124 7.8309 0 8.9433 0 10.3107C0 11.0137 0.295482 11.648 0.767309 12.0997C0.295482 12.5514 0 13.1857 0 13.8888C0 14.5919 0.295482 15.2261 0.767309 15.6778C0.295482 16.1296 0 16.7638 0 17.4669C0 18.1701 0.295482 18.8044 0.767309 19.256C0.295482 19.7077 0 20.342 0 21.0452C0 22.4124 1.1124 23.5248 2.47977 23.5248H14.0639C15.2985 23.5248 16.3224 22.6167 16.5099 21.434C20.0069 21.2471 23.0039 19.1495 24.4759 16.1691H29.5202C30.8876 16.1691 32 15.0567 32 13.6893C32 12.9862 31.7045 12.352 31.2327 11.9003C31.7044 11.4486 32 10.8144 32 10.1112C32 9.40811 31.7045 8.77386 31.2327 8.32218C31.7045 7.87038 32 7.23614 32 6.53306ZM30.6187 6.53306C30.6187 7.13876 30.1259 7.63142 29.5202 7.63142H24.3735C23.9503 6.82347 23.4139 6.08437 22.7848 5.43458H29.5201C30.1259 5.43458 30.6187 5.92736 30.6187 6.53306ZM30.6187 10.1112C30.6187 10.7169 30.1259 11.2095 29.5202 11.2095H25.4126C25.3492 10.4481 25.1953 9.71245 24.9614 9.01271H29.5202C30.1259 9.01271 30.6187 9.50549 30.6187 10.1112ZM30.6187 13.6893C30.6187 14.295 30.1259 14.7878 29.5202 14.7878H25.028C25.245 14.0867 25.3807 13.3507 25.4278 12.591H29.5202C30.1259 12.591 30.6187 13.0837 30.6187 13.6893ZM14.0639 22.1435H2.47977C1.87407 22.1435 1.38129 21.6508 1.38129 21.0452C1.38129 20.4396 1.87407 19.9468 2.47977 19.9468H10.8992C12.1339 20.7421 13.5636 21.2586 15.1007 21.4044C14.9514 21.8339 14.5435 22.1435 14.0639 22.1435ZM1.38129 17.4669C1.38129 16.8612 1.87407 16.3686 2.47977 16.3686H7.62647C8.04973 17.1765 8.58613 17.9156 9.21519 18.5654H2.47977C1.87407 18.5654 1.38129 18.0726 1.38129 17.4669V17.4669ZM1.38129 13.8888C1.38129 13.2831 1.87407 12.7904 2.47977 12.7904H6.5874C6.65082 13.5519 6.80472 14.2875 7.03862 14.9873H2.47977C1.87407 14.9873 1.38129 14.4945 1.38129 13.8888V13.8888ZM1.38129 10.3107C1.38129 9.70497 1.87407 9.21219 2.47977 9.21219H6.97197C6.75499 9.91332 6.61928 10.6493 6.5722 11.409H2.47977C1.87407 11.409 1.38129 10.9163 1.38129 10.3107V10.3107ZM16 20.067C11.5519 20.067 7.93312 16.4482 7.93312 12C7.93312 7.55176 11.5519 3.933 16 3.933C20.4481 3.933 24.0669 7.55176 24.0669 12C24.0669 16.4482 20.4481 20.067 16 20.067ZM17.9361 1.85645H29.5202C30.1259 1.85645 30.6187 2.34923 30.6187 2.95481C30.6187 3.5604 30.1259 4.05317 29.5202 4.05317H21.1008C19.8661 3.25789 18.4364 2.7414 16.8993 2.59556C17.0486 2.16609 17.4565 1.85645 17.9361 1.85645V1.85645Z"/>
        <path d="M22.8832 12C22.8832 8.20455 19.7955 5.11678 16 5.11678C12.2046 5.11678 9.11679 8.20455 9.11679 12C9.11679 15.7955 12.2046 18.8832 16 18.8832C19.7955 18.8832 22.8832 15.7955 22.8832 12ZM16 17.5019C12.9663 17.5019 10.4981 15.0338 10.4981 12C10.4981 8.96621 12.9663 6.49807 16 6.49807C19.0337 6.49807 21.5019 8.96621 21.5019 12C21.5019 15.0338 19.0337 17.5019 16 17.5019Z" />
        <path d="M16.6906 15.6779V15.462C17.7957 15.221 18.5874 14.4114 18.5874 13.4225C18.5874 12.4336 17.7957 11.6242 16.6906 11.3831V9.98458C17.0112 10.1279 17.2061 10.3604 17.2061 10.5775C17.2061 10.9588 17.5154 11.2681 17.8967 11.2681C18.2781 11.2681 18.5874 10.9588 18.5874 10.5775C18.5874 9.58872 17.7958 8.77917 16.6906 8.53801V8.32207C16.6906 7.94072 16.3813 7.63142 16 7.63142C15.6186 7.63142 15.3093 7.94072 15.3093 8.32207V8.53801C14.2043 8.77905 13.4126 9.5886 13.4126 10.5775C13.4126 11.5664 14.2043 12.3758 15.3093 12.6169V14.0154C14.9888 13.8721 14.7939 13.6396 14.7939 13.4225C14.7939 13.0412 14.4846 12.7319 14.1032 12.7319C13.7219 12.7319 13.4126 13.0412 13.4126 13.4225C13.4126 14.4113 14.2042 15.2208 15.3093 15.462V15.6779C15.3093 16.0593 15.6186 16.3686 16 16.3686C16.3813 16.3686 16.6906 16.0593 16.6906 15.6779V15.6779ZM14.7939 10.5775C14.7939 10.3604 14.9888 10.1279 15.3093 9.98458V11.1704C14.9888 11.0271 14.7939 10.7945 14.7939 10.5775V10.5775ZM17.2061 13.4225C17.2061 13.6396 17.0112 13.8721 16.6906 14.0154V12.8296C17.0112 12.9729 17.2061 13.2055 17.2061 13.4225V13.4225Z" />
    </g>
    </symbol>

    <symbol id="training-logo-proect" viewBox="0 0 32 30" xmlns="http://www.w3.org/2000/svg">
    <g>
        <path d="M29.9923 28.2377V8.23764H24.5H24.0078H22.0078V28.2376H19.9922V13.2378H14.5H14.0077H12.0078V28.2378H9.99221V18.2377H4.49994H4.0077H2.00771V28.2377H0V29.2222H32V28.2377H29.9923V28.2377ZM4.00781 28.2377H2.99231V19.2222H4.00781V28.2377ZM9.00783 28.2377H4.99219V19.2222H9.00772V28.2377H9.00783ZM14.0077 28.2377H12.9922V14.2223H14.0077V28.2377ZM19.0078 28.2377H14.9922V14.2223H19.0078V28.2377ZM24.0078 28.2376H22.9923V9.22213H24.0078V28.2376ZM29.0078 28.2376H24.9923V9.22213H29.0078V28.2376Z" />
        <path d="M6.29817 10.2347L24.0783 3.14881L23.5262 4.43245L24.4306 4.82137L25.6467 1.99378L22.8191 0.777786L22.4301 1.68214L23.7138 2.23419L5.93381 9.32015L6.29817 10.2347Z" />
        <path d="M7.99996 20.2377H5.99997V21.2222H7.99996V20.2377Z" />
        <path d="M18 15.2376H16V16.2221H18V15.2376Z" />
        <path d="M28 10.2376H26V11.2221H28V10.2376Z" />
    </g>
    </symbol>

    <symbol id="training-logo-control" viewBox="0 0 32 32" xmlns="http://www.w3.org/2000/svg">
    <g>
        <path d="M30 28C30 28 32 28 32 26C32 24 30 18 22 18C14 18 12 24 12 26C12 28 14 28 14 28H30ZM14.044 26C14.0292 25.998 14.0145 25.9953 14 25.992C14.002 25.464 14.334 23.932 15.52 22.552C16.624 21.258 18.564 20 22 20C25.434 20 27.374 21.26 28.48 22.552C29.666 23.932 29.996 25.466 30 25.992L29.984 25.996C29.9747 25.9976 29.9654 25.9989 29.956 26H14.044V26ZM22 14C23.0609 14 24.0783 13.5786 24.8284 12.8284C25.5786 12.0783 26 11.0609 26 10C26 8.93913 25.5786 7.92172 24.8284 7.17157C24.0783 6.42143 23.0609 6 22 6C20.9391 6 19.9217 6.42143 19.1716 7.17157C18.4214 7.92172 18 8.93913 18 10C18 11.0609 18.4214 12.0783 19.1716 12.8284C19.9217 13.5786 20.9391 14 22 14ZM28 10C28 10.7879 27.8448 11.5681 27.5433 12.2961C27.2417 13.0241 26.7998 13.6855 26.2426 14.2426C25.6855 14.7998 25.0241 15.2417 24.2961 15.5433C23.5681 15.8448 22.7879 16 22 16C21.2121 16 20.4319 15.8448 19.7039 15.5433C18.9759 15.2417 18.3145 14.7998 17.7574 14.2426C17.2002 13.6855 16.7583 13.0241 16.4567 12.2961C16.1552 11.5681 16 10.7879 16 10C16 8.4087 16.6321 6.88258 17.7574 5.75736C18.8826 4.63214 20.4087 4 22 4C23.5913 4 25.1174 4.63214 26.2426 5.75736C27.3679 6.88258 28 8.4087 28 10V10ZM13.872 18.56C13.072 18.3081 12.2473 18.1425 11.412 18.066C10.9427 18.0214 10.4715 17.9993 10 18C2 18 0 24 0 26C0 27.334 0.666 28 2 28H10.432C10.1355 27.3756 9.98765 26.6911 10 26C10 23.98 10.754 21.916 12.18 20.192C12.666 19.604 13.232 19.054 13.872 18.56ZM9.84 20C8.65631 21.7785 8.01688 23.8636 8 26H2C2 25.48 2.328 23.94 3.52 22.552C4.61 21.28 6.504 20.04 9.84 20.002V20ZM3 11C3 9.4087 3.63214 7.88258 4.75736 6.75736C5.88258 5.63214 7.4087 5 9 5C10.5913 5 12.1174 5.63214 13.2426 6.75736C14.3679 7.88258 15 9.4087 15 11C15 12.5913 14.3679 14.1174 13.2426 15.2426C12.1174 16.3679 10.5913 17 9 17C7.4087 17 5.88258 16.3679 4.75736 15.2426C3.63214 14.1174 3 12.5913 3 11V11ZM9 7C7.93913 7 6.92172 7.42143 6.17157 8.17157C5.42143 8.92172 5 9.93913 5 11C5 12.0609 5.42143 13.0783 6.17157 13.8284C6.92172 14.5786 7.93913 15 9 15C10.0609 15 11.0783 14.5786 11.8284 13.8284C12.5786 13.0783 13 12.0609 13 11C13 9.93913 12.5786 8.92172 11.8284 8.17157C11.0783 7.42143 10.0609 7 9 7Z"/>
    </g>
    </symbol>

    <symbol id="training-logo-market" viewBox="0 0 32 32" xmlns="http://www.w3.org/2000/svg">
    <g>
        <path d="M22.4134 4.27551H20.81C20.0553 4.27551 19.4235 4.81083 19.2738 5.52164C18.0429 6.13745 12.0022 8.99764 4.04794 10.0446C3.60125 10.1034 3.21769 10.3461 2.96969 10.6888H1.56994C0.70425 10.6889 0 11.3931 0 12.2588V15.4655C0 16.3312 0.70425 17.0355 1.56994 17.0355H2.96981C3.21775 17.3781 3.60137 17.621 4.048 17.6797C4.12794 17.6903 4.20731 17.7013 4.28694 17.7123L6.74869 26.5746C6.93675 27.2516 7.55875 27.7244 8.26138 27.7244H11.1882C11.1888 27.7244 11.1893 27.7245 11.1898 27.7245C11.1905 27.7245 11.1911 27.7244 11.1917 27.7244H11.7245C12.0012 27.7244 12.2256 27.5001 12.2256 27.2233C12.2256 26.9466 12.0012 26.7223 11.7245 26.7223H11.5709L9.33525 18.6743C14.592 19.9552 18.3342 21.7326 19.2739 22.2027C19.4235 22.9135 20.0554 23.4488 20.8101 23.4488H22.4134C23.2791 23.4488 23.9833 22.7446 23.9833 21.8789V5.84545C23.9833 4.97976 23.2791 4.27551 22.4134 4.27551ZM2.67225 16.0333H1.56994C1.25681 16.0333 1.00206 15.7786 1.00206 15.4655V12.2588C1.00206 11.9456 1.25681 11.6909 1.56994 11.6909H2.67225V16.0333ZM10.5308 26.7223H8.26138C8.00725 26.7223 7.78231 26.5513 7.71431 26.3064L5.37156 17.8732C6.35806 18.0312 7.31063 18.2151 8.2235 18.4163L10.5308 26.7223ZM22.9812 21.8789C22.9812 22.192 22.7264 22.4468 22.4133 22.4468H20.81C20.4969 22.4468 20.2421 22.192 20.2421 21.8789V21.8783C20.2421 21.8771 20.2421 21.876 20.2421 21.8748V10.1213C20.2421 9.84458 20.0178 9.6202 19.7411 9.6202C19.4643 9.6202 19.24 9.84451 19.24 10.1213V21.0723C17.2673 20.1355 11.5164 17.652 4.17869 16.6862C3.89106 16.6484 3.67425 16.4061 3.67425 16.1226V11.6017C3.67425 11.3183 3.89113 11.076 4.17869 11.0381C11.5164 10.0724 17.2673 7.58883 19.24 6.65214V7.98345C19.24 8.26014 19.4643 8.48451 19.7411 8.48451C20.0178 8.48451 20.2421 8.2602 20.2421 7.98345V5.84895C20.2421 5.84833 20.2421 5.8477 20.2421 5.84708V5.84545C20.2421 5.53233 20.4969 5.27758 20.81 5.27758H22.4133C22.7264 5.27758 22.9812 5.53233 22.9812 5.84545V21.8789Z" />
        <path d="M31.4989 13.3611H26.1544C25.8778 13.3611 25.6534 13.5854 25.6534 13.8622C25.6534 14.1389 25.8777 14.3632 26.1544 14.3632H31.4989C31.7756 14.3632 32 14.1389 32 13.8622C32 13.5854 31.7757 13.3611 31.4989 13.3611Z" />
        <path d="M30.3561 8.32031C30.2471 8.06594 29.9526 7.94819 29.6982 8.05719L29.1637 8.28625C28.9094 8.39525 28.7916 8.68981 28.9006 8.94413C28.9821 9.13413 29.1671 9.24788 29.3614 9.24788C29.4272 9.24788 29.4942 9.23481 29.5585 9.20725L30.093 8.97819C30.3473 8.86919 30.4651 8.57469 30.3561 8.32031Z" />
        <path d="M28.2183 9.2365C28.1093 8.98219 27.8147 8.86438 27.5604 8.97338L25.9571 9.66057C25.7028 9.76957 25.5849 10.0641 25.694 10.3184C25.7754 10.5084 25.9604 10.6222 26.1547 10.6222C26.2206 10.6222 26.2875 10.6091 26.3519 10.5816L27.9552 9.89438C28.2095 9.78538 28.3274 9.49082 28.2183 9.2365Z" />
        <path d="M30.0929 18.7461L29.5569 18.5164C29.3026 18.4073 29.0081 18.5252 28.8991 18.7795C28.7901 19.0338 28.9079 19.3284 29.1622 19.4374L29.6982 19.6671C29.7625 19.6946 29.8294 19.7077 29.8953 19.7077C30.0898 19.7077 30.2746 19.5939 30.3561 19.4039C30.4651 19.1496 30.3474 18.8551 30.0929 18.7461Z" />
        <path d="M27.9544 17.8296L26.3519 17.1428C26.0976 17.0338 25.8029 17.1516 25.694 17.4059C25.585 17.6603 25.7028 17.9548 25.9571 18.0638L27.5597 18.7506C27.624 18.7781 27.6909 18.7912 27.7568 18.7912C27.9512 18.7912 28.1361 18.6774 28.2176 18.4874C28.3266 18.2331 28.2087 17.9386 27.9544 17.8296Z" />
    </g>
    </symbol>

    <symbol id="training-logo-secret" viewBox="0 0 32 32" xmlns="http://www.w3.org/2000/svg">
    <g>
        <path d="M26.744 0.886063C26.436 0.886063 26.1863 1.13578 26.1863 1.44377V27.551C26.1863 27.6376 26.2065 27.7229 26.2452 27.8004L27.7481 30.8057C27.8425 30.9947 28.0356 31.114 28.2469 31.114C28.4581 31.114 28.6511 30.9947 28.7457 30.8057L30.2484 27.8004C30.2872 27.7229 30.3073 27.6377 30.3073 27.551V1.44377C30.3073 1.13578 30.0576 0.886063 29.7496 0.886063H26.744ZM29.1919 27.4192L28.2469 29.3092L27.3017 27.4192V2.00147H29.1919V27.4192Z" />
        <path d="M30.8846 4.86833V13.7653C30.8846 14.0733 31.1343 14.323 31.4423 14.323C31.7503 14.323 32 14.0733 32 13.7653V4.86833C32 4.56034 31.7503 4.31062 31.4423 4.31062C31.1343 4.31062 30.8846 4.56034 30.8846 4.86833Z" />
        <path d="M18.9035 16.6855H4.78391C4.47592 16.6855 4.2262 16.9353 4.2262 17.2433C4.2262 17.5513 4.47592 17.8009 4.78391 17.8009H18.9035C19.2115 17.8009 19.4612 17.5513 19.4612 17.2433C19.4612 16.9353 19.2115 16.6855 18.9035 16.6855Z" />
        <path d="M18.9035 24.9379H4.78391C4.47592 24.9379 4.2262 25.1876 4.2262 25.4956C4.2262 25.8035 4.47592 26.0533 4.78391 26.0533H18.9035C19.2115 26.0533 19.4612 25.8035 19.4612 25.4956C19.4612 25.1876 19.2115 24.9379 18.9035 24.9379Z" />
        <path d="M18.9035 13.1034H4.78391C4.47592 13.1034 4.2262 13.3532 4.2262 13.6612C4.2262 13.9691 4.47592 14.2189 4.78391 14.2189H18.9035C19.2115 14.2189 19.4612 13.9691 19.4612 13.6612C19.4612 13.3532 19.2115 13.1034 18.9035 13.1034Z" />
        <path d="M4.78391 10.6371H13.1661C13.4741 10.6371 13.7238 10.3873 13.7238 10.0793C13.7238 9.77131 13.4741 9.5217 13.1661 9.5217H4.78391C4.47592 9.5217 4.2262 9.77131 4.2262 10.0793C4.2262 10.3873 4.47592 10.6371 4.78391 10.6371Z" />
        <path d="M4.78391 7.05516H13.1661C13.4741 7.05516 13.7238 6.80554 13.7238 6.49756C13.7238 6.18957 13.4741 5.93975 13.1661 5.93975H4.78391C4.47592 5.93975 4.2262 6.18957 4.2262 6.49756C4.2262 6.80554 4.47592 7.05516 4.78391 7.05516Z" />
        <path d="M0.556183 31.0692H23.1313C23.4384 31.0692 23.6874 30.8202 23.6874 30.5131V8.90248C23.6874 8.90167 23.6873 8.90096 23.6873 8.90025C23.6872 8.88231 23.6863 8.86447 23.6846 8.84704C23.6833 8.83346 23.681 8.82018 23.6786 8.80691C23.6778 8.80235 23.6774 8.79769 23.6766 8.79313C23.6735 8.77752 23.6694 8.76191 23.665 8.74661C23.6643 8.74458 23.6639 8.74255 23.6633 8.74043C23.6586 8.72522 23.653 8.71012 23.6471 8.69523C23.6463 8.6933 23.6457 8.69127 23.645 8.68935C23.6392 8.67536 23.6326 8.66188 23.6256 8.64861C23.6242 8.64587 23.6231 8.64283 23.6216 8.64009C23.6151 8.62803 23.6078 8.61638 23.6005 8.60472C23.5981 8.60097 23.5959 8.59692 23.5935 8.59327C23.5865 8.58283 23.5787 8.5728 23.5709 8.56277C23.5676 8.55841 23.5644 8.55375 23.561 8.54939C23.5513 8.53774 23.541 8.52659 23.5303 8.51564C23.5282 8.51351 23.5266 8.51128 23.5245 8.50926L16.1086 1.09351C16.0958 1.08064 16.0823 1.06858 16.0684 1.05713C16.0648 1.05419 16.0608 1.05156 16.0572 1.04872C16.0465 1.04041 16.0358 1.0321 16.0247 1.0247C16.0215 1.02257 16.0179 1.02065 16.0146 1.01852C16.0026 1.01082 15.9905 1.00332 15.978 0.996525C15.9758 0.995309 15.9732 0.994397 15.971 0.993181C15.9571 0.985986 15.9431 0.979094 15.9288 0.973216C15.9271 0.972507 15.9255 0.972 15.924 0.971392C15.9088 0.96521 15.8933 0.959636 15.8777 0.954771C15.8759 0.954264 15.8741 0.95396 15.8723 0.953454C15.8568 0.948792 15.841 0.944738 15.825 0.941495C15.8206 0.940684 15.816 0.940279 15.8116 0.939468C15.7981 0.937137 15.7846 0.934705 15.7711 0.933387C15.7527 0.931462 15.7342 0.93055 15.7155 0.93055H0.556183C0.249006 0.930651 0 1.17966 0 1.48683V30.5131C0 30.8202 0.249006 31.0692 0.556183 31.0692ZM21.7887 8.3465L16.2721 8.3471L16.2718 2.82976L21.7887 8.3465ZM1.11237 2.04312H15.1593L15.1597 8.90339C15.1597 9.05095 15.2183 9.19243 15.3226 9.29671C15.4269 9.40089 15.5685 9.45947 15.7159 9.45947L22.5752 9.45866V29.9569H1.11237V2.04312Z" />
    </g>
    </symbol>

    <symbol id="training-logo-eco" viewBox="0 0 32 32" xmlns="http://www.w3.org/2000/svg">
    <g>
        <path d="M13.4903 7.84287C15.1644 9.51801 17.5782 9.60283 18.0454 9.60283L20.2672 9.60176V19.7343C20.2672 20.0292 20.5045 20.2676 20.7995 20.2676C21.0944 20.2676 21.3328 20.0292 21.3328 19.7343V6.42053C21.3376 6.30641 21.4245 3.60566 19.5744 1.75559C17.9473 0.126816 15.6828 0.00038147 15.0279 0.00038147L12.2685 0.00144394C11.9736 0.00144394 11.7352 0.240375 11.7352 0.534743L11.7358 3.1768C11.7309 3.29099 11.6403 5.99173 13.4903 7.84287ZM12.8018 3.19924V1.0681L15.0279 1.06704C15.4204 1.06704 17.4486 1.13635 18.8203 2.50969C20.3344 4.02378 20.2694 6.35547 20.2683 6.39922V7.77625L14.7788 2.28732C14.5703 2.07877 14.2327 2.07877 14.0247 2.28732C13.8162 2.49588 13.8162 2.83293 14.0247 3.04143L19.5189 8.53516L18.0454 8.53623C17.6523 8.53623 15.6214 8.46635 14.2444 7.08826C12.7314 5.57468 12.8007 3.24355 12.8018 3.19924Z" />
        <path d="M22.4005 13.3313C22.4 13.4039 22.4138 13.4753 22.4421 13.543C22.4459 13.5516 22.4533 13.5574 22.4571 13.5654C22.4827 13.6187 22.512 13.67 22.5557 13.7137C22.5963 13.7542 22.6443 13.7803 22.6928 13.8048C22.705 13.8112 22.7141 13.8219 22.7269 13.8278C22.7925 13.855 22.8624 13.8699 22.9328 13.8699C22.9344 13.8699 22.9355 13.8693 22.937 13.8693L25.5759 13.8688L25.6885 13.8704C26.1556 13.8704 28.5695 13.7862 30.242 12.1131C32.0937 10.2625 32.0025 7.56125 31.9982 7.4695V4.80294C31.9982 4.50858 31.7598 4.26964 31.4649 4.26964L28.8207 4.27021L28.7081 4.26808C28.241 4.26808 25.8282 4.35289 24.1546 6.02591C22.304 7.87655 22.3963 10.5778 22.4006 10.6695V13.3313H22.4005ZM24.9087 6.77996C26.2846 5.40455 28.315 5.33468 28.708 5.33468L30.9315 5.3363L30.932 7.49037C30.9325 7.51381 31.0023 9.845 29.4878 11.3591C28.1128 12.7346 26.0815 12.8039 25.6883 12.8039L24.2206 12.8033L29.7106 7.31332C29.9192 7.10476 29.9192 6.76771 29.7106 6.55921C29.5021 6.35072 29.1645 6.35065 28.9565 6.55921L23.467 12.0487L23.4665 10.6466C23.4655 10.6236 23.3861 8.3031 24.9087 6.77996Z" />
        <path d="M30.4179 21.4063C29.8676 21.2585 29.2926 21.3343 28.8323 21.6015L22.6944 24.5891C21.7403 25.0664 20.7771 25.0664 18.6662 25.0664C16.6028 25.0664 13.4525 24.5454 13.4205 24.5406C13.1298 24.4926 12.8552 24.6883 12.8072 24.9784C12.7586 25.2691 12.9549 25.5437 13.2455 25.5923C13.3778 25.6147 16.5137 26.1331 18.6662 26.1331C20.8805 26.1331 21.992 26.1331 23.1659 25.5459L29.3326 22.5428C29.579 22.4004 29.867 22.3626 30.1417 22.4361C30.4169 22.5102 30.6473 22.6868 30.7891 22.9332C31.0835 23.4425 30.908 24.0963 30.3843 24.3993L23.1733 28.8871C23.1584 28.8973 21.6197 29.8663 18.1329 29.8663C15.1096 29.8663 10.4387 27.2925 10.3715 27.2557C10.3229 27.2317 9.16621 26.6664 6.9332 26.6664C6.63827 26.6664 6.3999 26.9053 6.3999 27.1997C6.3999 27.4941 6.63827 27.733 6.9332 27.733C8.8729 27.733 9.87231 28.1997 9.87444 28.1997C9.87444 28.1997 9.87444 28.1997 9.87444 28.1991C10.0761 28.3111 14.8327 30.9329 18.1329 30.9329C21.9835 30.9329 23.6912 29.8236 23.7477 29.7857L30.9326 25.3139C31.9507 24.7256 32.3011 23.4184 31.7134 22.3998C31.4285 21.9065 30.9683 21.5535 30.4179 21.4063Z" />
        <path d="M2.66662 28.533C2.66662 28.092 2.30769 27.733 1.86664 27.733C1.42559 27.733 1.06666 28.092 1.06666 28.533C1.06666 28.9741 1.42559 29.333 1.86664 29.333C2.30769 29.333 2.66662 28.9741 2.66662 28.533Z" />
        <path d="M3.73322 17.0666H0.533299C0.238369 17.0666 0 17.3056 0 17.5999C0 17.8943 0.238369 18.1332 0.533299 18.1332H3.73322C4.02759 18.1332 4.26652 18.3727 4.26652 18.6665V30.3995C4.26652 30.6934 4.02759 30.9328 3.73322 30.9328H0.533299C0.238369 30.9328 0 31.1718 0 31.4661C0 31.7605 0.238369 31.9994 0.533299 31.9994H3.73322C4.61532 31.9994 5.33318 31.2816 5.33318 30.3995V18.6666C5.33318 17.7845 4.61532 17.0666 3.73322 17.0666Z" />
        <path d="M6.93314 20.2666H11.1997C11.8221 20.2666 12.8797 21.0602 13.813 21.7598C14.9831 22.6377 16.0887 23.4665 17.0662 23.4665H20.2661C21.0762 23.4665 21.4783 23.8339 21.489 23.8435C21.593 23.9475 21.7296 23.9998 21.8661 23.9998C22.0026 23.9998 22.1391 23.9475 22.2431 23.8435C22.4516 23.635 22.4516 23.2979 22.2431 23.0894C22.1728 23.019 21.5178 22.3998 20.2661 22.3998H17.0662C16.4438 22.3998 15.3862 21.6062 14.4529 20.9065C13.2829 20.0287 12.1773 19.1999 11.1997 19.1999H6.93314C6.63821 19.1999 6.39984 19.4388 6.39984 19.7332C6.39984 20.0276 6.63821 20.2666 6.93314 20.2666Z" />
    </g>
    </symbol>

    <symbol id="training-logo-psycho" viewBox="0 0 32 32" xmlns="http://www.w3.org/2000/svg">
    <g>
        <path d="M29.7521 12.2034C29.3357 11.5562 29.1033 10.153 29.1549 9.2992C29.276 7.30475 28.2161 5.32428 26.5783 4.48389C26.2625 4.32141 25.9784 4.23963 25.7277 4.16753C25.2968 4.04325 25.1187 3.9916 24.9557 3.65318C24.097 1.86856 23.1468 1.61892 21.345 1.73567C21.176 1.76741 20.9512 1.48818 20.7193 1.24069C20.3206 0.814037 19.7879 0.24427 18.9433 0.147426L18.6716 0.120525C17.5627 0.120525 16.5652 0.52189 15.9863 1.11425C15.6995 0.804352 15.3353 0.533188 14.97 0.3395C14.2587 -0.0376541 13.5926 -0.102755 13.1154 0.158724C12.2771 0.324436 11.7402 0.856002 11.3431 1.24876C11.0295 1.5592 10.8331 1.75665 10.6539 1.73513C8.85102 1.61946 7.90248 1.8691 7.04326 3.65265C6.88078 3.99106 6.70269 4.04271 6.27173 4.167C6.02155 4.23909 5.73748 4.32087 5.42112 4.48335C3.78338 5.32428 2.72401 7.30421 2.84453 9.29866C2.89618 10.153 2.66375 11.5557 2.24732 12.2029C1.22131 13.7998 1.22131 16.0304 2.24732 17.6273C2.40604 17.8737 2.63846 18.1604 2.90748 18.4929C3.38739 19.0858 4.1912 20.0774 4.16376 20.5315C4.04163 22.5416 5.26832 24.8578 6.89799 25.6944C7.19122 25.845 7.24071 25.9973 7.35155 26.4584C7.41288 26.7134 7.48928 27.0303 7.65391 27.3714C8.09671 28.292 8.7913 28.5561 9.29811 28.7493C9.8017 28.9403 10.0099 29.0199 10.0863 29.5719C10.3343 31.3689 11.4653 32 12.502 32C12.5612 32 12.6199 31.9979 12.6785 31.9941C13.9493 31.9064 15.2809 30.9336 15.9997 29.4315C16.7185 30.9342 18.0496 31.9069 19.3209 31.9941C19.3791 31.9979 19.4382 32 19.4974 32C20.5342 32 21.6651 31.3684 21.9131 29.5719C21.9895 29.0199 22.1978 28.9403 22.7013 28.7493C23.2082 28.5561 23.9027 28.292 24.3461 27.3714C24.5102 27.0303 24.5866 26.7129 24.6479 26.4584C24.7593 25.9978 24.8082 25.845 25.1015 25.6944C26.7306 24.8578 27.9573 22.5421 27.8357 20.5315C27.8083 20.0774 28.6121 19.0853 29.092 18.4929C29.361 18.1604 29.5934 17.8737 29.7521 17.6273C30.7781 16.0309 30.7781 13.7998 29.7521 12.2034ZM12.6053 30.9213C11.8107 30.9622 11.2936 30.4446 11.1532 29.4256C10.9897 28.2419 10.2337 27.9541 9.68172 27.7442C9.23463 27.5742 8.88115 27.4397 8.62451 26.9055C8.50991 26.6682 8.45342 26.4331 8.39854 26.206C8.398 26.2033 8.39692 26.2007 8.39639 26.198C8.43781 26.1216 8.46794 26.0382 8.46794 25.9451C8.46794 24.4618 9.67473 23.255 11.1581 23.255C11.455 23.255 11.6961 23.0145 11.6961 22.717C11.6961 22.4194 11.455 22.1789 11.1581 22.1789C9.46598 22.1789 8.03215 23.3007 7.55815 24.8389C7.50434 24.8045 7.45216 24.7695 7.38975 24.7378C6.14853 24.1008 5.1435 22.166 5.23819 20.5977C5.29092 19.7261 4.46936 18.7114 3.7441 17.8161C3.50522 17.5213 3.27979 17.2431 3.15335 17.0457C2.34686 15.7915 2.34686 14.0397 3.15335 12.7856C3.71451 11.9129 3.98352 10.2945 3.91896 9.23356C3.8248 7.67706 4.66304 6.08236 5.91287 5.4405C6.13615 5.3259 6.35728 5.26241 6.57034 5.20054C6.79631 5.13544 7.03519 5.06281 7.26439 4.93637C7.30635 4.94659 7.3467 4.96219 7.39136 4.96219C8.57824 4.96219 9.54345 5.92741 9.54345 7.11429C9.54345 7.41181 9.78449 7.65231 10.0815 7.65231C10.3785 7.65231 10.6195 7.41181 10.6195 7.11429C10.6195 5.57554 9.53646 4.28644 8.09294 3.96524C8.57447 3.02424 8.98229 2.78266 9.92114 2.78266C10.117 2.78266 10.3365 2.79289 10.5845 2.80903C11.2533 2.85045 11.7031 2.40658 12.1001 2.01329C12.4773 1.64044 12.8329 1.2875 13.3887 1.20303L13.5657 1.17021L13.6496 1.09273C13.7529 1.04808 14.0424 1.06476 14.4658 1.28911C15.0835 1.61677 15.4622 2.11121 15.4622 2.27154V6.61285C13.3424 6.87917 11.6961 8.68908 11.6961 10.8799C11.6961 12.6602 10.2483 14.108 8.46794 14.108C8.17096 14.108 7.92992 14.3485 7.92992 14.6461C7.92992 14.9436 8.17096 15.1841 8.46794 15.1841C10.8412 15.1841 12.7721 13.2531 12.7721 10.8799C12.7721 9.2836 13.938 7.95791 15.4622 7.70019V27.0206C15.4622 29.4057 13.7729 30.8406 12.6053 30.9213ZM28.8466 17.0457C28.7202 17.2426 28.4948 17.5213 28.2559 17.8161C28.0385 18.0846 27.8142 18.3644 27.6054 18.6474C27.0287 16.9494 25.4227 15.7227 23.5321 15.7227C21.7517 15.7227 20.3039 14.2748 20.3039 12.4945C20.3039 12.197 20.0629 11.9565 19.7659 11.9565C19.4689 11.9565 19.2279 12.197 19.2279 12.4945C19.2279 14.8677 21.1588 16.7987 23.5321 16.7987C25.3124 16.7987 26.7602 18.2465 26.7602 20.0268C26.7602 20.0898 26.7763 20.1484 26.7962 20.2049C26.7693 20.3378 26.7537 20.4696 26.7613 20.5977C26.856 22.166 25.8509 24.1013 24.6097 24.7378C24.5478 24.7695 24.4957 24.805 24.4413 24.8389C23.9679 23.3007 22.5335 22.1789 20.8414 22.1789C20.5444 22.1789 20.3034 22.4194 20.3034 22.717C20.3034 23.0145 20.5444 23.255 20.8414 23.255C22.3247 23.255 23.5315 24.4618 23.5315 25.9451C23.5315 26.0382 23.5616 26.1216 23.6031 26.198C23.6025 26.2007 23.6015 26.2033 23.6009 26.206C23.546 26.4331 23.4895 26.6677 23.3755 26.9055C23.1183 27.4392 22.7654 27.5737 22.3183 27.7442C21.7663 27.9541 21.0098 28.2419 20.8468 29.4256C20.7058 30.4451 20.1834 30.9611 19.3947 30.9213C18.2271 30.8411 16.5378 29.4062 16.5378 27.0211V2.27208C16.5378 1.86641 17.3222 1.27727 18.4375 1.2041L18.6898 1.20895C19.1811 1.20895 19.4872 1.4984 19.9332 1.97563C20.3174 2.38614 20.7591 2.84023 21.4144 2.80956C22.8584 2.7181 23.3298 2.83162 23.9167 3.98784C22.7697 4.29505 21.918 5.33397 21.918 6.5768C21.918 6.87433 22.159 7.11483 22.456 7.11483C22.753 7.11483 22.994 6.87433 22.994 6.5768C22.994 5.68691 23.7182 4.96273 24.6081 4.96273C24.6533 4.96273 24.6936 4.94767 24.7351 4.93691C24.9643 5.06334 25.2032 5.13598 25.4291 5.20108C25.6422 5.26295 25.8633 5.32644 26.0866 5.44104C27.3359 6.08236 28.1747 7.6776 28.0805 9.2341C28.0159 10.2951 28.2849 11.9129 28.8461 12.7861C29.6531 14.0397 29.6531 15.791 28.8466 17.0457Z" />
        <path d="M14.1371 14.9888C13.9267 14.7784 13.5867 14.7784 13.3763 14.9888C12.6398 15.7248 12.2341 16.704 12.2341 17.744C12.2341 18.6151 12.522 19.4404 13.0465 20.1189C12.522 20.7973 12.2341 21.6232 12.2341 22.4937C12.2341 23.5342 12.6398 24.5129 13.3763 25.2489C13.4812 25.3538 13.619 25.4065 13.7567 25.4065C13.8944 25.4065 14.0322 25.3538 14.1371 25.2489C14.3475 25.0385 14.3475 24.6985 14.1371 24.4881C13.6039 23.955 13.3102 23.2464 13.3102 22.4937C13.3102 21.741 13.6039 21.0324 14.1371 20.4992C14.3475 20.2889 14.3475 19.9488 14.1371 19.7385C13.6039 19.2053 13.3102 18.4967 13.3102 17.744C13.3102 16.9913 13.6039 16.2827 14.1371 15.7496C14.3469 15.5397 14.3469 15.1992 14.1371 14.9888Z" />
        <path d="M18.5887 16.7874C18.3783 16.9978 18.3783 17.3378 18.5887 17.5482C19.5883 18.5484 19.5883 20.1759 18.5887 21.1761C17.9006 21.8642 17.5213 22.7788 17.5213 23.7505C17.5213 24.7222 17.9006 25.6368 18.5887 26.3249C18.6936 26.4299 18.8313 26.4826 18.9691 26.4826C19.1068 26.4826 19.2445 26.4299 19.3495 26.3249C19.5598 26.1146 19.5598 25.7746 19.3495 25.5642C18.8647 25.0794 18.5973 24.4349 18.5973 23.7505C18.5973 23.0661 18.8647 22.4216 19.3495 21.9368C20.7688 20.517 20.7688 18.2067 19.3495 16.7874C19.1391 16.577 18.7985 16.577 18.5887 16.7874Z" />
        <path d="M25.5851 11.6708C24.1954 11.9145 22.8595 10.9811 22.6147 9.58812C22.4463 8.6299 21.9153 7.79436 21.1196 7.23643C20.3238 6.6785 19.357 6.46382 18.3988 6.63169C18.1061 6.68334 17.9102 6.96203 17.9619 7.25472C18.0135 7.5474 18.2917 7.74001 18.5849 7.69213C19.2618 7.57054 19.9413 7.72495 20.5019 8.11717C21.0625 8.51046 21.4365 9.09906 21.5554 9.77428C21.8658 11.5395 23.4062 12.7867 25.1407 12.7867C25.349 12.7867 25.5599 12.7684 25.7718 12.7313C26.0645 12.6796 26.2604 12.4009 26.2087 12.1082C26.1571 11.8155 25.88 11.6202 25.5851 11.6708Z" />
        <path d="M7.32195 12.2648C8.207 12.2648 9.04094 11.7203 9.36483 10.8428C9.46759 10.5636 9.32555 10.2542 9.04685 10.1514C8.7687 10.0492 8.45826 10.1912 8.35549 10.4699C8.14513 11.0392 7.51134 11.3308 6.94372 11.1204C5.81925 10.7072 4.56566 11.2834 4.15031 12.4079C4.04754 12.6871 4.19012 12.9965 4.46882 13.0993C4.53015 13.1219 4.5931 13.1326 4.65497 13.1326C4.87395 13.1326 5.07947 12.9981 5.15964 12.7813C5.36947 12.2126 6.00111 11.9194 6.57141 12.1308C6.8189 12.2212 7.07231 12.2648 7.32195 12.2648Z" />
        <path d="M9.03556 20.4987C8.4674 20.2894 8.17526 19.6561 8.38455 19.088V19.0874C8.7999 17.9624 8.22206 16.7094 7.09706 16.2935C6.81944 16.1918 6.50846 16.3333 6.4057 16.612C6.30294 16.8912 6.44497 17.2006 6.72367 17.3034C7.29236 17.5132 7.58451 18.1464 7.37468 18.7146C7.37468 18.7151 7.37468 18.7157 7.37468 18.7157C6.9604 19.8396 7.5377 21.0927 8.66217 21.5085C8.7235 21.5311 8.78645 21.5419 8.84886 21.5419C9.06784 21.5419 9.27336 21.4074 9.35353 21.1906C9.45683 20.9113 9.31425 20.6025 9.03556 20.4987Z" />
    </g>
    </symbol>

    <symbol id="training-logo-security" viewBox="0 0 32 32" xmlns="http://www.w3.org/2000/svg">
    <g>
        <path d="M16.0001 32C15.8289 32 15.6579 31.9529 15.5069 31.8588C6.8142 26.4385 3.47956 19.5909 2.21294 14.8009C0.858554 9.67956 1.50212 5.82502 1.55369 5.53562L1.5686 5.44304C1.64006 4.99645 2.02188 4.66573 2.47406 4.65859C2.52082 4.6575 7.44844 4.50434 11.5677 0.281174C11.8478 -0.0058894 12.2801 -0.0816941 12.6411 0.0930606C13.6927 0.602102 14.8228 0.860117 16.0001 0.860117C17.1774 0.860117 18.3075 0.601946 19.3591 0.0930606C19.7203 -0.0816941 20.1524 -0.0058894 20.4325 0.281174C24.5781 4.53152 29.4772 4.65781 29.5261 4.65859C29.9783 4.66573 30.3601 4.99645 30.4316 5.44304L30.4465 5.53562C30.4982 5.82502 31.1416 9.67956 29.7872 14.8009C28.5206 19.5909 25.186 26.4385 16.4933 31.859C16.3423 31.9529 16.1711 32 16.0001 32ZM3.31304 6.45724C3.18877 7.69031 3.04633 10.7163 4.038 14.411C5.72668 20.7022 9.74976 25.9322 15.9998 29.9643C23.8072 24.9205 26.8285 18.6975 27.985 14.3243C28.9565 10.6507 28.8136 7.67648 28.6884 6.4574C27.0304 6.2553 23.1212 5.42704 19.5613 2.04068C18.4311 2.49458 17.2361 2.72432 15.9999 2.72432C14.7637 2.72432 13.5687 2.49473 12.4385 2.04068C8.87987 5.42595 4.97189 6.25468 3.31304 6.45724Z" />
        <path d="M16.0001 26.2204C15.8289 26.2204 15.6579 26.1733 15.5069 26.0792C9.9503 22.6144 7.81892 18.0446 7.00914 14.8212C6.12962 11.3199 6.5728 8.64579 6.59206 8.53363L6.6006 8.48035C6.67206 8.03376 7.05388 7.70304 7.50606 7.6959C7.5317 7.69528 10.4929 7.59307 12.9699 5.05345C13.25 4.76639 13.6823 4.69058 14.0433 4.86534C14.6558 5.16188 15.3141 5.31209 16.0001 5.31209C16.686 5.31209 17.3444 5.16172 17.9569 4.86534C18.318 4.69058 18.7502 4.76639 19.0302 5.05345C21.5073 7.59307 24.4686 7.69512 24.4983 7.6959C24.9474 7.70693 25.3287 8.03686 25.3997 8.48035L25.41 8.54435C25.4275 8.64579 25.8705 11.3199 24.9912 14.8212C24.1815 18.0446 22.0499 22.6144 16.4934 26.0792C16.3423 26.1733 16.1711 26.2204 16.0001 26.2204ZM8.36384 9.47529C8.29735 10.402 8.27452 12.2533 8.837 14.4458C9.86191 18.4411 12.2707 21.7139 16.0001 24.1808C19.7293 21.7139 22.1382 18.4411 23.1632 14.4458C23.7263 12.251 23.7028 10.3982 23.6365 9.47529C22.4617 9.28966 20.2298 8.69643 18.1568 6.80147C17.4682 7.05047 16.7454 7.1763 16.0001 7.1763C15.2548 7.1763 14.532 7.05047 13.8434 6.80147C11.7704 8.69627 9.53866 9.28951 8.36384 9.47529Z" />
        <path d="M16.0001 9.73749L16.9514 12.6653H20.0298L17.5393 14.4748L18.4906 17.4026L16.0001 15.5931L13.5096 17.4026L14.4608 14.4748L11.9703 12.6653H15.0488L16.0001 9.73749Z" />
    </g>
    </symbol>

    <symbol id="training-logo-managing" viewBox="0 0 32 32" xmlns="http://www.w3.org/2000/svg">
    <g>
        <path d="M29.8667 5.86666H21.8667V3.73333H22.9333C23.2533 3.73333 23.4667 3.51999 23.4667 3.19999V1.06666C23.4667 0.746659 23.2533 0.533325 22.9333 0.533325H9.06667C8.74667 0.533325 8.53333 0.746659 8.53333 1.06666V3.19999C8.53333 3.51999 8.74667 3.73333 9.06667 3.73333H10.1333V5.86666H2.13333C0.96 5.86666 0 6.82666 0 7.99999V16C0 16.32 0.213333 16.5333 0.533333 16.5333H2.13333V30.9333C2.13333 31.2533 2.34667 31.4667 2.66667 31.4667H20.2667V30.4H3.2V16.5333H10.6667V15.4667H2.66667H1.06667V7.99999C1.06667 7.41332 1.54667 6.93332 2.13333 6.93332H10.6667H21.3333H29.8667C30.4533 6.93332 30.9333 7.41332 30.9333 7.99999V15.4667H29.3333H21.3333V16.5333H28.8V17.6H29.8667V16.5333H31.4667C31.7867 16.5333 32 16.32 32 16V7.99999C32 6.82666 31.04 5.86666 29.8667 5.86666ZM9.6 1.59999H22.4V2.66666H9.6V1.59999ZM11.2 5.86666V3.73333H20.8V5.86666H11.2Z" />
        <path d="M19.7333 13.8667H12.2667C11.9467 13.8667 11.7333 14.08 11.7333 14.4V17.6C11.7333 17.92 11.9467 18.1333 12.2667 18.1333H19.7333C20.0533 18.1333 20.2667 17.92 20.2667 17.6V14.4C20.2667 14.08 20.0533 13.8667 19.7333 13.8667ZM19.2 17.0667H12.8V14.9333H19.2V17.0667Z" />
        <path d="M31.4667 18.6667H21.8667C21.5467 18.6667 21.3333 18.88 21.3333 19.2V30.9333C21.3333 31.2533 21.5467 31.4667 21.8667 31.4667H31.4667C31.7867 31.4667 32 31.2533 32 30.9333V19.2C32 18.88 31.7867 18.6667 31.4667 18.6667ZM30.9333 19.7333V21.8667H22.4V19.7333H30.9333ZM22.4 30.4V22.9333H30.9333V30.4H22.4Z" />
        <path d="M25.0667 24H24V25.0667H25.0667V24Z" />
        <path d="M27.2 24H26.1333V25.0667H27.2V24Z" />
        <path d="M29.3333 24H28.2667V25.0667H29.3333V24Z" />
        <path d="M25.0667 26.1333H24V27.2H25.0667V26.1333Z" />
        <path d="M27.2 26.1333H26.1333V27.2H27.2V26.1333Z" />
        <path d="M29.3333 26.1333H28.2667V27.2H29.3333V26.1333Z" />
        <path d="M25.0667 28.2667H24V29.3333H25.0667V28.2667Z" />
        <path d="M27.2 28.2667H26.1333V29.3333H27.2V28.2667Z" />
        <path d="M29.3333 28.2667H28.2667V29.3333H29.3333V28.2667Z" />
        <path d="M24 20.2667H22.9333V21.3333H24V20.2667Z" />
        <path d="M25.6 20.2667H24.5333V21.3333H25.6V20.2667Z" />
        <path d="M27.2 20.2667H26.1333V21.3333H27.2V20.2667Z" />
        <path d="M28.8 20.2667H27.7333V21.3333H28.8V20.2667Z" />
        <path d="M30.4 20.2667H29.3333V21.3333H30.4V20.2667Z" />
    </g>
    </symbol>

    <symbol id="nav__link-arrow" viewBox="0 0 11 11" fill="none" xmlns="http://www.w3.org/2000/svg">
    <g>
        <path d="M1.5 4L5.5 8L9.5 4"/>
    </g>
    </symbol>

</svg>
