<svg display="none" xmlns="http://www.w3.org/2000/svg">

    <symbol id="training-logo" viewBox="0 0 32 32" xmlns="http://www.w3.org/2000/svg">
    <g>
        <path d="M21.7473 5.38605H10.2525C7.569 5.38605 5.38596 7.56909 5.38596 10.2526V21.7474C5.38596 24.4309 7.569 26.6139 10.2525 26.6139H21.7473C24.431 26.6139 26.614 24.4309 26.614 21.7474V10.2526C26.614 7.56909 24.431 5.38605 21.7473 5.38605ZM17.9656 6.24414C21.879 7.03137 24.9687 10.121 25.7559 14.0345H21.0388C20.4888 12.6296 19.3704 11.5112 17.9656 10.9612V6.24414ZM20.7514 16.0001C20.7514 18.6201 18.6201 20.7516 16 20.7516C13.3799 20.7516 11.2484 18.6201 11.2484 16.0001C11.2484 13.38 13.3799 11.2485 16 11.2485C18.6201 11.2485 20.7514 13.38 20.7514 16.0001ZM14.6966 6.1364C15.1236 6.08027 15.558 6.0483 16 6.0483C16.442 6.0483 16.8764 6.08027 17.3033 6.1364V10.7515C16.885 10.6475 16.45 10.5863 16 10.5863C15.55 10.5863 15.115 10.6475 14.6966 10.7515V6.1364ZM14.0344 10.9611C12.6295 11.5112 11.5111 12.6296 10.9611 14.0345H6.24404C7.03128 10.121 10.121 7.03137 14.0344 6.24414V10.9611ZM6.04822 10.2526C6.04822 7.93434 7.93424 6.0483 10.2525 6.0483H12.3108C9.42131 7.12293 7.12284 9.4214 6.04822 12.3109V10.2526V10.2526ZM6.13629 14.6967H10.7514C10.6474 15.115 10.5862 15.55 10.5862 16.0001C10.5862 16.45 10.6474 16.885 10.7514 17.3033H6.13629C6.08019 16.8764 6.04822 16.442 6.04822 16.0001C6.04822 15.5581 6.08019 15.1237 6.13629 14.6967ZM10.2525 25.9517C7.93424 25.9517 6.04822 24.0657 6.04822 21.7474V19.6891C7.12284 22.5786 9.42131 24.8771 12.3108 25.9517H10.2525V25.9517ZM14.0344 25.7558C10.1209 24.9686 7.03119 21.879 6.24401 17.9655H10.961C11.511 19.3704 12.6295 20.4889 14.0344 21.039V25.7558ZM17.3033 25.8636C16.8764 25.9197 16.442 25.9517 16 25.9517C15.558 25.9517 15.1236 25.9197 14.6966 25.8636V21.2486C15.115 21.3526 15.55 21.4139 16 21.4139C16.45 21.4139 16.885 21.3526 17.3033 21.2486V25.8636ZM17.9656 21.039C19.3704 20.4889 20.4888 19.3704 21.0388 17.9655H25.756C24.9688 21.879 21.8791 24.9686 17.9656 25.7558V21.039ZM25.9518 21.7474C25.9518 24.0657 24.0656 25.9517 21.7473 25.9517H19.6891C22.5786 24.8771 24.8771 22.5786 25.9518 19.6891V21.7474V21.7474ZM25.8637 17.3033H21.2484C21.3524 16.885 21.4136 16.45 21.4136 16.0001C21.4136 15.55 21.3524 15.115 21.2484 14.6967H25.8636C25.9198 15.1237 25.9518 15.5581 25.9518 16.0001C25.9518 16.442 25.9198 16.8764 25.8637 17.3033ZM25.9518 12.311C24.8771 9.42142 22.5786 7.12293 19.6891 6.0483H21.7473C24.0656 6.0483 25.9518 7.93434 25.9518 10.2526V12.311V12.311Z"/>
    </g>
    </symbol>

</svg>
