<svg width="32" height="32" viewBox="0 0 32 32" fill="none" xmlns="http://www.w3.org/2000/svg">
<g clip-path="url(#clip0_254_402)">
<path d="M16 0C11.7565 0 7.68687 1.68571 4.68629 4.68629C1.68571 7.68687 0 11.7565 0 16C0 20.2435 1.68571 24.3131 4.68629 27.3137C7.68687 30.3143 11.7565 32 16 32C20.2435 32 24.3131 30.3143 27.3137 27.3137C30.3143 24.3131 32 20.2435 32 16C32 11.7565 30.3143 7.68687 27.3137 4.68629C24.3131 1.68571 20.2435 0 16 0Z" fill="#29B6F6"/>
<path d="M22.6334 10.0002L20.136 22.7508C20.136 22.7508 20.0287 23.3335 19.306 23.3335C18.922 23.3335 18.724 23.1508 18.724 23.1508L13.3147 18.6622L10.668 17.3282L7.27135 16.4248C7.27135 16.4248 6.66669 16.2502 6.66669 15.7502C6.66669 15.3335 7.28869 15.1348 7.28869 15.1348L21.4994 9.4895C21.4987 9.48883 21.9334 9.33283 22.25 9.3335C22.4447 9.3335 22.6667 9.41683 22.6667 9.66683C22.6667 9.8335 22.6334 10.0002 22.6334 10.0002Z" fill="white"/>
<path d="M15.3333 20.3366L13.0493 22.586C13.0493 22.586 12.95 22.6626 12.8173 22.666C12.7713 22.6673 12.722 22.66 12.6713 22.6373L13.314 18.6606L15.3333 20.3366Z" fill="#B0BEC5"/>
<path d="M19.9314 12.1306C19.8187 11.9839 19.6107 11.9573 19.464 12.0686L10.6667 17.3333C10.6667 17.3333 12.0707 21.2613 12.2847 21.9413C12.4994 22.6219 12.6714 22.6379 12.6714 22.6379L13.314 18.6613L19.8687 12.5973C20.0154 12.4859 20.0427 12.2773 19.9314 12.1306Z" fill="#CFD8DC"/>
</g>
<defs>
<clipPath id="clip0_254_402">
<rect width="32" height="32" fill="white"/>
</clipPath>
</defs>
</svg>
