<svg width="18" height="14" viewBox="0 0 18 14" fill="none" xmlns="http://www.w3.org/2000/svg">
<path d="M17.8613 2.81116C16.6331 1.58295 15.0001 0.906525 13.2632 0.906525C11.6797 0.906525 10.1827 1.46865 9 2.49848C7.81726 1.46865 6.32027 0.906525 4.73684 0.906525C2.99994 0.906525 1.36691 1.58295 0.138742 2.81111C0.0499263 2.89998 0 3.02044 0 3.14606V12.6197C0 12.8113 0.115437 12.9841 0.292405 13.0574C0.469421 13.1308 0.673153 13.0902 0.808626 12.9547C1.85793 11.9054 3.25298 11.3276 4.73684 11.3276C6.22071 11.3276 7.61575 11.9054 8.66506 12.9547C8.66657 12.9562 8.66828 12.9575 8.6698 12.959C8.67941 12.9684 8.68926 12.9775 8.69964 12.986C8.70556 12.9909 8.71181 12.9952 8.71792 12.9997C8.72422 13.0044 8.73033 13.0093 8.73687 13.0137C8.74393 13.0183 8.75122 13.0225 8.75842 13.0268C8.76448 13.0304 8.77036 13.0342 8.77661 13.0375C8.78391 13.0415 8.79144 13.0448 8.79887 13.0482C8.80546 13.0513 8.8119 13.0546 8.81863 13.0574C8.82587 13.0604 8.83331 13.0628 8.8407 13.0654C8.8479 13.068 8.85501 13.0708 8.8624 13.073C8.86988 13.0753 8.87746 13.0769 8.88499 13.0788C8.89243 13.0807 8.89977 13.0828 8.90735 13.0843C8.91616 13.086 8.92506 13.0871 8.93392 13.0884C8.94036 13.0893 8.94666 13.0905 8.95315 13.0912C8.98432 13.0942 9.01568 13.0942 9.04685 13.0912C9.05334 13.0905 9.05968 13.0893 9.06608 13.0884C9.07498 13.0871 9.08384 13.086 9.09265 13.0843C9.10023 13.0828 9.10757 13.0807 9.11501 13.0788C9.12254 13.0769 9.13012 13.0753 9.13761 13.073C9.14499 13.0708 9.1521 13.068 9.1593 13.0654C9.16669 13.0628 9.17408 13.0604 9.18137 13.0574C9.1881 13.0546 9.19454 13.0513 9.20113 13.0482C9.20856 13.0447 9.21609 13.0414 9.22339 13.0375C9.2296 13.0342 9.23552 13.0304 9.24158 13.0268C9.24883 13.0225 9.25612 13.0184 9.26313 13.0137C9.26967 13.0093 9.27578 13.0044 9.28208 12.9997C9.28819 12.9952 9.29444 12.9909 9.30036 12.986C9.31074 12.9775 9.32059 12.9684 9.3302 12.959C9.33177 12.9575 9.33343 12.9563 9.33494 12.9547C10.3842 11.9055 11.7793 11.3276 13.2632 11.3276C14.747 11.3276 16.1421 11.9054 17.1914 12.9547C17.282 13.0453 17.4032 13.0935 17.5264 13.0935C17.5874 13.0935 17.649 13.0816 17.7076 13.0574C17.8846 12.9841 18 12.8113 18 12.6197V3.14606C18 3.02044 17.9501 2.89998 17.8613 2.81116ZM0.947368 11.5966V3.3469C1.97934 2.38262 3.31745 1.85389 4.73684 1.85389C6.15633 1.85389 7.4943 2.38305 8.52632 3.34747V11.5969C7.42898 10.8067 6.11574 10.3802 4.73684 10.3802C3.35804 10.3802 2.04471 10.8065 0.947368 11.5966ZM17.0526 11.5966C15.9553 10.8065 14.642 10.3802 13.2632 10.3802C11.8843 10.3802 10.571 10.8066 9.47368 11.5969V3.34747C10.5057 2.38305 11.8437 1.85389 13.2632 1.85389C14.6826 1.85389 16.0207 2.38262 17.0526 3.3469V11.5966Z" fill="white"/>
</svg>
