<svg width="18" height="12" viewBox="0 0 18 12" fill="none" xmlns="http://www.w3.org/2000/svg">
<path d="M17.557 5.81719C15.7641 2.78321 12.5086 0.881256 9 0.881256C5.49141 0.881256 2.23242 2.78321 0.442967 5.81719C0.369139 5.92618 0.369139 6.07383 0.442967 6.18282C2.23594 9.2168 5.49141 11.1188 9 11.1188C12.5086 11.1188 15.7676 9.2168 17.557 6.18282C17.6309 6.07383 17.6309 5.92618 17.557 5.81719ZM9 10.3875C5.81836 10.3875 2.85469 8.70704 1.20937 6.00001C2.85469 3.29297 5.81836 1.61251 9 1.61251C12.1816 1.61251 15.1453 3.29297 16.7906 6.00001C15.1453 8.70704 12.1816 10.3875 9 10.3875Z" fill="white"/>
<path d="M9 2.70938C7.17187 2.70938 5.70937 4.17188 5.70937 6.00001C5.70937 7.82813 7.17187 9.29063 9 9.29063C10.8281 9.29063 12.2906 7.82813 12.2906 6.00001C12.2906 4.17188 10.8281 2.70938 9 2.70938ZM9 8.55938C7.57265 8.55938 6.44062 7.42383 6.44062 6.00001C6.44062 4.57618 7.57617 3.44063 9 3.44063C10.4238 3.44063 11.5594 4.57618 11.5594 6.00001C11.5594 7.42383 10.4273 8.55938 9 8.55938Z" fill="white"/>
<path d="M9 4.53751V5.26876C9.40078 5.26876 9.73125 5.59923 9.73125 6.00001C9.73125 6.40079 9.40078 6.73126 9 6.73126C8.59922 6.73126 8.26875 6.40079 8.26875 6.00001H7.5375C7.5375 6.80508 8.19492 7.46251 9 7.46251C9.80508 7.46251 10.4625 6.80508 10.4625 6.00001C10.4625 5.19493 9.80508 4.53751 9 4.53751Z" fill="white"/>
</svg>
