<svg width="32" height="32" viewBox="0 0 32 32" fill="none" xmlns="http://www.w3.org/2000/svg">
<circle cx="16" cy="16" r="16" fill="#3A5AC8"/>
<g clip-path="url(#clip0_202_689)">
<path d="M21.1826 17.9803C20.573 17.4905 20.0139 17.2523 19.4732 17.2523C18.6909 17.2523 18.1277 17.7499 17.6178 18.2597C17.5592 18.3183 17.4882 18.3457 17.3944 18.3457C16.9647 18.3457 16.2088 17.8076 15.1477 16.7464C13.8993 15.4979 13.4273 14.7039 13.7447 14.3864C14.6051 13.5263 14.8737 12.6641 13.5564 11.0259C13.0848 10.4389 12.6234 10.1537 12.1459 10.1537C11.5019 10.1537 11.0123 10.6685 10.5804 11.1227C10.5057 11.2012 10.4352 11.2754 10.366 11.3446C9.87779 11.8327 9.87805 12.8975 10.3667 14.193C10.9028 15.6144 11.9614 17.1606 13.3475 18.5469C14.4194 19.6187 15.5857 20.4849 16.7204 21.0665C17.711 21.5743 18.6719 21.8463 19.426 21.8463C19.4261 21.8463 19.4262 21.8463 19.4263 21.8463C19.8983 21.8463 20.2816 21.7434 20.5348 21.534C21.0491 21.1088 22.0064 20.3212 22 19.3857C21.9965 18.8839 21.7215 18.4136 21.1826 17.9803Z" fill="white"/>
</g>
<defs>
<clipPath id="clip0_202_689">
<rect width="12" height="12" fill="white" transform="translate(10 10)"/>
</clipPath>
</defs>
</svg>
