<svg width="12" height="12" viewBox="0 0 12 12" fill="none" xmlns="http://www.w3.org/2000/svg">
<path d="M11.8402 11.0689L8.12102 7.34971C8.72855 6.57676 9.09131 5.60276 9.09131 4.54567C9.09131 2.03916 7.05215 0 4.54564 0C2.03916 0 0 2.03916 0 4.54567C0 7.05211 2.03916 9.09127 4.54564 9.09127C5.60273 9.09127 6.57673 8.72855 7.34964 8.12105L11.0688 11.8402C11.1753 11.9468 11.3149 12 11.4545 12C11.5941 12 11.7337 11.9468 11.8402 11.8402C12.0533 11.6272 12.0533 11.2819 11.8402 11.0689ZM1.09091 4.54567C1.09091 2.64069 2.64069 1.09091 4.54564 1.09091C6.45062 1.09091 8.0004 2.64069 8.0004 4.54564C8.0004 6.45058 6.45062 8.00033 4.54564 8.00033C2.64069 8.00036 1.09091 6.45058 1.09091 4.54567Z" fill="#3A5AC8"/>
</svg>
