<svg width="30" height="22" viewBox="0 0 30 22" fill="none" xmlns="http://www.w3.org/2000/svg">
<g clip-path="url(#clip0_250_182)">
<path fill-rule="evenodd" clip-rule="evenodd" d="M12.4377 1.96914C7.67692 3.27635 4.57848 6.00845 3.80798 10.7631C3.59821 12.0564 3.89118 11.0796 4.7777 10.4234C7.67224 8.28028 13.3634 9.0391 14.1533 13.9335C15.7424 22.5993 4.79059 24.0996 1.54919 19.3136C0.795086 18.2012 0.295868 16.9027 0.115986 15.4766C-0.66507 9.27445 2.54762 3.75054 8.19137 1.15583C9.23552 0.675838 10.3359 0.300198 11.5201 0.0242615C12.1131 -0.093996 12.5437 0.224836 12.7424 0.765112C12.9105 1.22597 12.9679 1.73436 12.4377 1.96914ZM28.1279 1.96914C23.3672 3.27635 20.2681 6.00845 19.4982 10.7631C19.2884 12.0564 19.5814 11.0796 20.4679 10.4234C23.3625 8.28028 29.0537 9.0391 29.8429 13.9335C31.4332 22.5993 20.4808 24.0996 17.2394 19.3136C16.4853 18.2012 15.9861 16.9027 15.8062 15.4766C15.0252 9.27445 18.2379 3.75054 23.8816 1.15583C24.9258 0.675838 26.0256 0.300198 27.2103 0.0242615C27.8033 -0.093996 28.234 0.224836 28.4326 0.765112C28.6008 1.22597 28.6582 1.73436 28.1279 1.96914Z" fill="#3A5AC8"/>
</g>
<defs>
<clipPath id="clip0_250_182">
<rect width="30" height="22" fill="white" transform="translate(30 22) rotate(-180)"/>
</clipPath>
</defs>
</svg>
